# xmcd CD database file
#
# Track frame offsets:
#	183
#	14525
#	33598
#	61390
#	76535
#	91213
#	109418
#	122538
#	141223
#	156918
#	186340
#	200693
#	213538
#	232410
#
# Disc length: 3223 seconds
#
# Revision: 2
# Processed by: cddbd v1.5PL3 Copyright (c) Steve Scherf et al.
# Submitted via: CDex 1.51
#
DISCID=ca0c950e
DTITLE=Black Bottom Stumpers - 30 Jahre
DYEAR=1989
DGENRE=Jazz
TTITLE0=Trombone Rag
TTITLE1=Black Snake Blues
TTITLE2=Dinah
TTITLE3=The Chant
TTITLE4=Jumping Trout Rag
TTITLE5=Clarinete Marmelade
TTITLE6=Blue Washboard Stump
TTITLE7=Stomp your Stuff
TTITLE8=Maple Leaf Rag
TTITLE9=Whe Erastus play his Kazoo
TTITLE10=King Chanticleer
TTITLE11=Since my best girl tourned me down
TTITLE12=Squeeze me
TTITLE13=Grandpa's Spells
EXTD=YEAR: 1989
EXTT0=
EXTT1=
EXTT2=
EXTT3=
EXTT4=
EXTT5=
EXTT6=
EXTT7=
EXTT8=
EXTT9=
EXTT10=
EXTT11=
EXTT12=
EXTT13=
PLAYORDER=
